{
  "accessors": [
    {
      "bufferView": 2,
      "componentType": 5126,
      "count": 2998,
      "max": [
        0.95105999708175659,
        1,
        1
      ],
      "min": [
        -0.95105999708175659,
        -1,
        -1
      ],
      "type": "VEC3"
    },
    {
      "bufferView": 2,
      "byteOffset": 35976,
      "componentType": 5126,
      "count": 2998,
      "max": [
        0.99906736612319946,
        0.99999034404754639,
        1
      ],
      "min": [
        -0.99430632591247559,
        -0.99995571374893188,
        -1
      ],
      "type": "VEC3"
    },
    {
      "bufferView": 3,
      "componentType": 5126,
      "count": 2998,
      "max": [
        1,
        0.99999761581420898,
        0.99999922513961792,
        1
      ],
      "min": [
        -0.99976754188537598,
        -0.99526423215866089,
        -0.99999946355819702,
        -1
      ],
      "type": "VEC4"
    },
    {
      "bufferView": 2,
      "byteOffset": 71952,
      "componentType": 5126,
      "count": 2998,
      "max": [
        1,
        1,
        1
      ],
      "min": [
        1,
        1,
        1
      ],
      "type": "VEC3"
    },
    {
      "bufferView": 1,
      "componentType": 5126,
      "count": 2998,
      "max": [
        0.9663500189781189,
        0.97095000743865967
      ],
      "min": [
        0.017079999670386314,
        0.024100000038743019
      ],
      "type": "VEC2"
    },
    {
      "bufferView": 0,
      "componentType": 5125,
      "count": 4317,
      "max": [
        2997
      ],
      "min": [
        0
      ],
      "type": "SCALAR"
    }
  ],
  "asset": {
    "extras": {
      "author": "proxy_doug (https://sketchfab.com/proxy_doug)",
      "license": "CC-BY-4.0 (http://creativecommons.org/licenses/by/4.0/)",
      "source": "https://sketchfab.com/models/e70ff8e4a25343288498fd72a7be1a0e",
      "title": "Dark Realm Orb"
    },
    "generator": "Sketchfab-3.18.7",
    "version": "2.0"
  },
  "bufferViews": [
    {
      "buffer": 0,
      "byteLength": 17268,
      "byteOffset": 0,
      "name": "floatBufferViews",
      "target": 34963
    },
    {
      "buffer": 0,
      "byteLength": 23984,
      "byteOffset": 17268,
      "byteStride": 8,
      "name": "floatBufferViews",
      "target": 34962
    },
    {
      "buffer": 0,
      "byteLength": 107928,
      "byteOffset": 41252,
      "byteStride": 12,
      "name": "floatBufferViews",
      "target": 34962
    },
    {
      "buffer": 0,
      "byteLength": 47968,
      "byteOffset": 149180,
      "byteStride": 16,
      "name": "floatBufferViews",
      "target": 34962
    }
  ],
  "buffers": [
    {
      "byteLength": 197148,
      "uri": "realm.bin"
    }
  ],
  "images": [
    {
      "uri": "textures/realm_-_Root_baseColor.png"
    }
  ],
  "materials": [
    {
      "doubleSided": false,
      "emissiveFactor": [
        0,
        0,
        0
      ],
      "name": "realm_-_Root",
      "pbrMetallicRoughness": {
        "baseColorFactor": [
          1,
          1,
          1,
          1
        ],
        "baseColorTexture": {
          "index": 0,
          "texCoord": 0
        },
        "metallicFactor": 0,
        "roughnessFactor": 0.59999999999999998
      }
    }
  ],
  "meshes": [
    {
      "name": "DarkRealmOrb_0",
      "primitives": [
        {
          "attributes": {
            "COLOR_0": 3,
            "NORMAL": 1,
            "POSITION": 0,
            "TANGENT": 2,
            "TEXCOORD_0": 4
          },
          "indices": 5,
          "material": 0,
          "mode": 4
        }
      ]
    }
  ],
  "nodes": [
    {
      "children": [
        1
      ],
      "name": "RootNode (gltf orientation matrix)",
      "rotation": [
        -0.70710678118654746,
        -0,
        -0,
        0.70710678118654757
      ]
    },
    {
      "children": [
        2
      ],
      "name": "RootNode (model correction matrix)"
    },
    {
      "children": [
        3
      ],
      "name": "Root"
    },
    {
      "children": [
        4
      ],
      "matrix": [
        3,
        0,
        0,
        0,
        0,
        3,
        0,
        0,
        0,
        0,
        3,
        0,
        0,
        0,
        3,
        1
      ],
      "name": "DarkRealmOrb"
    },
    {
      "mesh": 0,
      "name": "DarkRealmOrb_0"
    }
  ],
  "samplers": [
    {
      "magFilter": 9729,
      "minFilter": 9987,
      "wrapS": 10497,
      "wrapT": 10497
    }
  ],
  "scene": 0,
  "scenes": [
    {
      "name": "OSG_Scene",
      "nodes": [
        0
      ]
    }
  ],
  "textures": [
    {
      "sampler": 0,
      "source": 0
    }
  ]
}
